<?xml version="1.0" standalone="no"?>
<!DOCTYPE svg PUBLIC "-//W3C//DTD SVG 20010904//EN"
 "http://www.w3.org/TR/2001/REC-SVG-20010904/DTD/svg10.dtd">
<svg version="1.0" xmlns="http://www.w3.org/2000/svg"
 width="1280.000000pt" height="640.000000pt" viewBox="0 0 1280.000000 640.000000"
 preserveAspectRatio="xMidYMid meet">
<metadata>
Created by potrace 1.15, written by Peter Selinger 2001-2017
</metadata>
<g transform="translate(0.000000,640.000000) scale(0.100000,-0.100000)"
fill="#009688" stroke="none">
<path d="M813 4723 l-103 -4 0 -154 0 -155 -355 0 -355 0 0 -165 0 -165 369 0
369 0 6 -42 c39 -273 39 -1414 0 -1659 l-7 -39 -368 0 -369 0 0 -165 0 -165
355 0 355 0 0 -159 0 -159 41 -7 c23 -4 126 -7 229 -7 103 0 206 3 229 7 l41
7 0 159 0 159 335 0 335 0 0 -159 0 -159 41 -7 c23 -4 126 -7 229 -7 103 0
206 3 229 7 l41 7 0 159 0 159 335 0 335 0 0 -159 0 -159 37 -7 c48 -9 432 -9
472 0 l31 7 0 159 0 159 340 0 340 0 0 -159 0 -159 31 -7 c39 -9 423 -9 469 0
l35 6 0 157 0 157 338 3 337 2 0 -159 0 -159 38 -7 c48 -9 416 -9 465 0 l37 7
0 159 0 159 335 0 335 0 0 -159 0 -159 41 -7 c54 -9 404 -9 458 0 l41 7 0 159
0 159 335 0 335 0 0 -159 0 -159 41 -7 c54 -9 404 -9 458 0 l41 7 0 159 0 159
335 0 335 0 0 -159 0 -159 37 -7 c49 -9 417 -9 466 0 l37 7 0 159 0 159 338
-2 337 -3 3 -157 3 -157 30 -6 c39 -9 423 -9 469 0 l35 6 0 157 0 157 338 3
337 2 0 -159 0 -159 31 -7 c40 -9 424 -9 472 0 l37 7 0 159 0 159 320 0 320 0
0 165 0 165 -334 0 c-308 0 -334 1 -341 17 -3 10 -13 148 -22 308 -22 425 -8
1299 23 1398 5 16 30 17 340 17 l334 0 0 165 0 165 -320 0 -320 0 0 154 0 153
-135 6 c-74 3 -196 3 -270 0 l-135 -6 0 -153 0 -154 -340 0 -340 0 0 153 0
154 -132 6 c-73 3 -193 3 -265 0 l-133 -6 0 -154 0 -153 -340 0 -340 0 0 154
0 153 -135 6 c-74 3 -196 3 -270 0 l-135 -6 0 -153 0 -154 -335 0 -335 0 0
154 0 153 -135 6 c-74 3 -196 3 -270 0 l-135 -6 0 -153 0 -154 -335 0 -335 0
0 154 0 153 -135 6 c-74 3 -196 3 -270 0 l-135 -6 0 -153 0 -154 -335 0 -335
0 0 154 0 153 -135 6 c-74 3 -196 3 -270 0 l-135 -6 0 -154 0 -153 -337 2
-338 3 0 151 0 151 -132 6 c-73 3 -194 3 -268 0 l-135 -6 0 -153 0 -154 -340
0 -340 0 0 154 0 153 -135 6 c-74 3 -196 3 -270 0 l-135 -6 0 -153 0 -154
-335 0 -335 0 0 154 0 153 -135 6 c-74 3 -196 3 -270 0 l-135 -6 0 -153 0
-154 -335 0 -335 0 0 155 0 155 -63 0 c-35 0 -111 2 -168 4 -57 2 -150 1 -206
-1z m1141 -666 c3 -12 11 -97 18 -187 24 -309 11 -1402 -18 -1507 l-6 -23
-363 0 -362 0 -7 32 c-39 197 -39 1454 0 1676 l6 32 363 0 363 0 6 -23z m1218
-42 c20 -182 30 -569 25 -940 -6 -371 -21 -707 -33 -727 -3 -4 -169 -8 -368
-8 l-363 0 -7 48 c-38 277 -38 1365 1 1647 l6 45 366 -2 366 -3 7 -60z m1203
53 c39 -103 45 -1264 9 -1660 l-7 -68 -367 0 -368 0 -6 68 c-35 381 -35 1263
0 1610 l6 62 364 0 c283 0 366 -3 369 -12z m1219 -42 c37 -316 37 -1287 0
-1628 l-7 -58 -367 0 -367 0 -6 73 c-37 424 -31 1544 8 1655 3 9 86 12 368 12
l364 0 7 -54z m1210 12 c39 -278 38 -1414 -1 -1660 l-6 -38 -362 0 c-336 0
-363 1 -370 18 -3 9 -13 152 -22 317 -21 431 -7 1292 23 1388 5 16 31 17 369
17 l363 0 6 -42z m1210 10 c19 -97 30 -379 30 -793 0 -417 -14 -834 -30 -892
l-6 -23 -363 0 -363 0 -6 24 c-28 111 -41 1225 -18 1506 7 80 15 160 18 178
l6 32 363 0 363 0 6 -32z m1210 15 c3 -10 11 -85 18 -168 25 -296 11 -1463
-18 -1540 -5 -13 -51 -15 -369 -15 l-362 0 -7 40 c-38 239 -38 1379 0 1653 l7
47 363 0 c337 0 363 -1 368 -17z m1211 5 c39 -111 45 -1227 8 -1655 l-6 -73
-367 0 -368 0 -6 63 c-36 359 -36 1281 0 1620 l7 57 364 0 c282 0 365 -3 368
-12z m1219 -54 c36 -350 36 -1287 0 -1616 l-7 -58 -367 0 -367 0 -6 68 c-37
404 -31 1550 8 1660 3 9 86 12 368 12 l364 0 7 -66z"/>
</g>
</svg>
